<svg class="svg-icon" style="width: 1em; height: 1em;vertical-align: middle;fill: currentColor;overflow: hidden;" viewBox="0 0 1024 1024" version="1.1" xmlns="http://www.w3.org/2000/svg"><path d="M274.789948 411.609569 117.314381 411.609569c-23.461341 0-42.548048 19.086707-42.548048 42.548048l0 483.96755c0 23.462365 19.086707 42.549072 42.548048 42.549072l157.475568 0L274.789948 411.609569z"  /><path d="M947.119517 530.066471c-3.906983-22.372543-12.855796-42.996257-26.593681-61.298088-13.734816-18.295692-31.052227-32.632211-51.470255-42.611493-19.472494-9.517771-41.24231-14.548344-62.955844-14.548344l-142.413524 0c22.272259-75.258031 32.695656-141.019781 30.992875-195.609073-1.452071-46.5195-11.657504-85.209684-30.332842-114.994034-31.380708-50.04479-75.369571-57.292867-77.226872-57.576323l-0.679475-0.104377-0.685615 0c-28.402887 0-48.13223 8.021697-58.640562 23.840988-8.872065 13.356193-9.041934 29.039383-9.155521 39.417755-0.031722 2.921539-0.062422 5.681396-0.293689 7.320733l-0.091074 0.63138 0 0.638543c0 138.332579-143.653771 253.048273-205.944466 296.261471l0 569.236586 435.936627 0c16.597003 0 32.408107-5.27412 45.732577-15.257495 13.204743-9.923 22.62223-23.51967 27.253714-39.336914l122.821303-330.84001 0.207731-0.63138C949.625594 573.747319 950.848445 551.425941 947.119517 530.066471z"  /></svg>